<svg width="32" height="32" viewBox="0 0 32 32" fill="none" xmlns="http://www.w3.org/2000/svg">
<path d="M15.9839 0.5C28.371 0.5 31.4677 3.59677 31.4677 15.9839C31.4677 28.371 28.371 31.4677 15.9839 31.4677C3.59677 31.4677 0.5 28.371 0.5 15.9839C0.5 3.59677 3.59677 0.5 15.9839 0.5Z" fill="#0B0C0D"/>
<path d="M15.1042 26L15.191 17.441L7.8125 21.816L6.875 20.184L14.375 16L6.875 11.816L7.8125 10.184L15.191 14.559L15.1042 6H16.9444L16.8576 14.559L24.2361 10.184L25.1736 11.816L17.6736 16L25.1736 20.184L24.2361 21.816L16.8576 17.441L16.9444 26H15.1042Z" fill="#E8F0FF"/>
</svg>
